<svg class="svg-icon" style="width: 1em;height: 1em;vertical-align: middle;fill: currentColor;overflow: hidden;" viewBox="0 0 1024 1024" version="1.1" xmlns="http://www.w3.org/2000/svg"><path d="M512 459.487179m-393.846154 0a393.846154 393.846154 0 1 0 787.692308 0 393.846154 393.846154 0 1 0-787.692308 0Z" fill="#163080" /><path d="M598.738051 517.553231l0.065641-0.131282-52.775384-17.106052c34.868513-17.513026 65.430974-61.216821 65.430974-125.36123 0-5.513846-0.512-10.581333-1.299692-15.386257C603.766154 298.036513 560.351179 262.564103 512.485744 262.564103c-48.206769 0-91.897436 31.507692-97.778872 97.503179-0.735179 4.647385-1.181538 9.58359-1.181539 14.887385 0 63.146667 32.40041 106.732308 65.877334 124.862359l-65.798564 20.611282 0.210051 0.223179C352.754872 545.148718 357.218462 656.410256 357.218462 656.410256h309.654974c0-87.197538-32.597333-130.100513-68.135385-138.857025z m-119.72923 54.455795c-5.986462-10.843897-29.801026-37.586051-14.401642-42.404103l28.816411-9.675487-3.452718 10.948923-10.948923 41.130667zM436.250256 377.370256c31.37641 1.798564 86.409846-1.050256 106.456616-40.001641 11.894154 23.630769 30.903795 32.505436 45.974974 35.84 0.026256 0.643282 0.249436 1.102769 0.249436 1.746052 0 73.124103-44.373333 112.075487-76.43241 112.075487-26.374564 0-75.106462-37.74359-76.248616-109.659898z m93.932308 153.494975l-2.441846-12.156718 27.044103 9.662359c13.325128 5.211897-9.452308 32.62359-15.097436 43.625025l-9.504821-41.130666z" fill="#68D8FE" /></svg>